<svg id="mermaidChart62" width="100%" xmlns="http://www.w3.org/2000/svg" height="100%" style="max-width:850px;" viewBox="-50 -10 850 452"><style type="text/css" title="mermaid-svg-internal-css">/*  */
*, ::before, ::after { box-sizing: inherit;}
.actor { stroke: rgb(204, 204, 255); fill: rgb(226, 236, 255);}
text.actor { fill: black; stroke: none; font-size: 12px;}
.actor-line { stroke: grey;}
.messageLine0 { stroke-width: 1.5; stroke: black;}
#arrowhead { fill: black;}
.messageText { fill: black; stroke: none; font-size: 12px;}
.note { stroke: rgb(204, 204, 255); fill: rgb(255, 245, 173);}
.noteText { fill: black; stroke: none; font-size: 12px;}
.actor { stroke: rgb(204, 204, 255); fill: rgb(236, 236, 255);}
text.actor { fill: black; stroke: none;}
.actor-line { stroke: grey;}
.messageLine0 { stroke-width: 1.5; stroke: rgb(51, 51, 51);}
#arrowhead { fill: rgb(51, 51, 51);}
#crosshead path { fill: rgb(51, 51, 51) !important; stroke: rgb(51, 51, 51) !important;}
.messageText { fill: rgb(51, 51, 51); stroke: none;}
.note { stroke: rgb(170, 170, 51); fill: rgb(255, 245, 173);}
.noteText { fill: black; stroke: none; font-family: 'trebuchet ms', verdana, arial; font-size: 14px;}
text { font-family: 'trebuchet ms', verdana, arial; font-size: 14px;}
/*  */
</style><g></g><g><line id="actor260" x1="75" y1="5" x2="75" y2="441" class="actor-line" stroke-width="0.5px" stroke="#999"></line><rect x="0" y="0" fill="#eaeaea" stroke="#666" width="150" height="65" rx="3" ry="3" class="actor"></rect><text x="75" y="37.5" class="actor" style="text-anchor: middle;">Browser</text></g><g><line id="actor261" x1="275" y1="5" x2="275" y2="441" class="actor-line" stroke-width="0.5px" stroke="#999"></line><rect x="200" y="0" fill="#eaeaea" stroke="#666" width="150" height="65" rx="3" ry="3" class="actor"></rect><text x="275" y="37.5" class="actor" style="text-anchor: middle;">Watson</text></g><g><line id="actor262" x1="475" y1="5" x2="475" y2="441" class="actor-line" stroke-width="0.5px" stroke="#999"></line><rect x="400" y="0" fill="#eaeaea" stroke="#666" width="150" height="65" rx="3" ry="3" class="actor"></rect><text x="475" y="37.5" class="actor" style="text-anchor: middle;">Supporter</text></g><g><line id="actor263" x1="675" y1="5" x2="675" y2="441" class="actor-line" stroke-width="0.5px" stroke="#999"></line><rect x="600" y="0" fill="#eaeaea" stroke="#666" width="150" height="65" rx="3" ry="3" class="actor"></rect><text x="675" y="37.5" class="actor" style="text-anchor: middle;">Panoramix</text></g><defs><marker id="arrowhead" refX="5" refY="2" markerWidth="6" markerHeight="4" orient="auto"><path d="M 0,0 V 4 L6,2 Z"></path></marker></defs><defs><marker id="crosshead" markerWidth="15" markerHeight="8" orient="auto" refX="16" refY="4"><path fill="black" stroke="#000000" stroke-width="1px" d="M 9,2 V 6 L16,4 Z" style="stroke-dasharray: 0, 0;"></path><path fill="none" stroke="#000000" stroke-width="1px" d="M 0,1 L 6,7 M 6,1 L 0,7" style="stroke-dasharray: 0, 0;"></path></marker></defs><g><rect x="300" y="75" fill="#EDF2AE" stroke="#666" width="150" height="36" rx="0" ry="0" class="note"></rect><text x="316" y="103" fill="black" class="noteText"><tspan x="316">BFF</tspan></text></g><g><text x="175" y="139" class="messageText" style="text-anchor: middle;">Loggin with user/password</text><line x1="75" y1="146" x2="275" y2="146" class="messageLine0" stroke-width="2" stroke="black" marker-end="url(#arrowhead)" style="fill: none;"></line></g><g><text x="375" y="174" class="messageText" style="text-anchor: middle;">Forward for Oauth</text><line x1="275" y1="181" x2="475" y2="181" class="messageLine0" stroke-width="2" stroke="black" marker-end="url(#arrowhead)" style="fill: none;"></line></g><g><text x="375" y="209" class="messageText" style="text-anchor: middle;">Authenticated [token]</text><line x1="475" y1="216" x2="275" y2="216" class="messageLine0" stroke-width="2" stroke="black" marker-end="url(#arrowhead)" style="fill: none;"></line></g><g><text x="175" y="244" class="messageText" style="text-anchor: middle;">Request: query donors</text><line x1="75" y1="251" x2="275" y2="251" class="messageLine0" stroke-width="2" stroke="black" marker-end="url(#arrowhead)" style="fill: none;"></line></g><g><text x="475" y="279" class="messageText" style="text-anchor: middle;">Query donors (basic auth)</text><line x1="275" y1="286" x2="675" y2="286" class="messageLine0" stroke-width="2" stroke="black" marker-end="url(#arrowhead)" style="fill: none;"></line></g><g><text x="475" y="314" class="messageText" style="text-anchor: middle;">Donor data</text><line x1="675" y1="321" x2="275" y2="321" class="messageLine0" stroke-width="2" stroke="black" marker-end="url(#arrowhead)" style="fill: none;"></line></g><g><text x="175" y="349" class="messageText" style="text-anchor: middle;">Donor data</text><line x1="275" y1="356" x2="75" y2="356" class="messageLine0" stroke-width="2" stroke="black" marker-end="url(#arrowhead)" style="fill: none;"></line></g><g><rect x="0" y="376" fill="#eaeaea" stroke="#666" width="150" height="65" rx="3" ry="3" class="actor"></rect><text x="75" y="413.5" class="actor" style="text-anchor: middle;">Browser</text></g><g><rect x="200" y="376" fill="#eaeaea" stroke="#666" width="150" height="65" rx="3" ry="3" class="actor"></rect><text x="275" y="413.5" class="actor" style="text-anchor: middle;">Watson</text></g><g><rect x="400" y="376" fill="#eaeaea" stroke="#666" width="150" height="65" rx="3" ry="3" class="actor"></rect><text x="475" y="413.5" class="actor" style="text-anchor: middle;">Supporter</text></g><g><rect x="600" y="376" fill="#eaeaea" stroke="#666" width="150" height="65" rx="3" ry="3" class="actor"></rect><text x="675" y="413.5" class="actor" style="text-anchor: middle;">Panoramix</text></g></svg>